<svg width="19" height="29" viewBox="0 0 19 29" fill="none" xmlns="http://www.w3.org/2000/svg">
<path d="M4.48751 18.3268C4.48751 18.4884 4.57869 18.6886 4.68971 18.772L9.29693 22.2258C9.40792 22.3092 9.59028 22.3092 9.70127 22.2258L14.3085 18.772C14.42 18.6886 14.5107 18.4884 14.5107 18.3268V17.5211C14.5107 17.3596 14.4044 17.2275 14.2745 17.2275H11.9126C11.7826 17.2275 11.5852 17.2956 11.4737 17.3784L9.70081 18.7021C9.58931 18.7855 9.40747 18.7855 9.29596 18.7021L7.52309 17.3784C7.41162 17.295 7.32044 17.0953 7.32044 16.9338V10.4155C7.32044 10.254 7.42295 10.0861 7.54766 10.042L9.27094 9.43656C9.39613 9.39251 9.60065 9.39251 9.72536 9.43656L11.4482 10.042C11.5734 10.0861 11.7817 10.1219 11.9116 10.1219H14.2735C14.4034 10.1219 14.5098 9.98977 14.5098 9.82824V7.88788C14.5098 7.72635 14.4077 7.55842 14.2825 7.51437L9.72536 5.91341C9.6002 5.86936 9.39565 5.86936 9.27094 5.91341L4.7138 7.51437C4.58861 7.55842 4.48657 7.72635 4.48657 7.88788V18.3268H4.48751Z" fill="white"/>
<path d="M9.17618 28.65C9.35426 28.7833 9.64526 28.7833 9.82337 28.65L18.6753 22.0137C18.8535 21.8804 18.999 21.5598 18.999 21.3013V12.4028C18.999 12.1444 18.829 11.933 18.6212 11.933H9.87767C9.66983 11.933 9.49978 12.1444 9.49978 12.4028V14.9869C9.49978 15.2452 9.66983 15.4567 9.87767 15.4567H15.7873C15.995 15.4567 16.1651 15.6681 16.1651 15.9265V19.3116C16.1651 19.57 16.0198 19.8907 15.8417 20.024L9.82382 24.5355C9.64574 24.6688 9.35475 24.6688 9.17667 24.5355L3.15839 20.024C2.98031 19.8907 2.8348 19.57 2.8348 19.3116V6.5094C2.8348 6.25102 2.99825 5.98202 3.19855 5.91155L9.1365 3.82612C9.33632 3.75564 9.66368 3.75564 9.86398 3.82612L15.8018 5.91155C16.0018 5.98202 16.1657 6.25102 16.1657 6.5094V9.65256C16.1657 9.91095 16.3358 10.1224 16.5435 10.1224H18.6222C18.8299 10.1224 19 9.91095 19 9.65256V3.97235C19 3.71392 18.8367 3.44496 18.6364 3.37509L9.8635 0.302404C9.66368 0.232532 9.33632 0.232532 9.13602 0.302404L0.363754 3.37509C0.163454 3.44496 0 3.71392 0 3.97235V21.3019C0 21.5603 0.145482 21.881 0.323591 22.0143L9.1757 28.6506L9.17618 28.65Z" fill="white"/>
</svg>
