<svg width="148" height="30" viewBox="0 0 148 30" fill="none" xmlns="http://www.w3.org/2000/svg">
<mask id="mask0_10501_45018" style="mask-type:luminance" maskUnits="userSpaceOnUse" x="0" y="0" width="148" height="30">
<path d="M148 0.929688H0V29.0695H148V0.929688Z" fill="white"/>
</mask>
<g mask="url(#mask0_10501_45018)">
<path d="M38.4978 22.5973C37.525 22.7823 36.6221 22.8983 34.6545 22.8983C31.8067 22.8983 28.543 21.3704 28.543 15.7447V12.5266C28.543 6.85454 31.8067 5.37305 34.6545 5.37305C36.1125 5.37305 37.525 5.5812 38.5437 5.74358C38.752 5.7668 38.9143 5.83638 38.9143 6.04454V7.22507C38.9143 7.36424 38.8678 7.47966 38.6368 7.47966H38.567C37.7339 7.41007 36.0205 7.27144 34.6772 7.27144C32.4083 7.27144 30.6496 8.59121 30.6496 12.5266V15.7447C30.6496 19.6343 32.4083 20.9999 34.6772 20.9999C35.9973 20.9999 37.6635 20.8839 38.4978 20.8143H38.5903C38.8451 20.8143 38.9609 20.9303 38.9609 21.1848V22.134C38.9609 22.4118 38.7526 22.551 38.4978 22.5973Z" fill="white"/>
<path d="M43.1951 22.736H41.9914C41.7598 22.736 41.5742 22.5278 41.5742 22.2732V5.76629C41.5742 5.53492 41.7359 5.32617 41.9914 5.32617H43.1951C43.426 5.32617 43.6116 5.51111 43.6116 5.76629V22.2727C43.6116 22.504 43.4499 22.736 43.1951 22.736Z" fill="white"/>
<path d="M48.8662 7.96548H47.6858C47.4315 7.96548 47.2227 7.75733 47.2227 7.5028V5.65077C47.2227 5.39625 47.4309 5.1875 47.6858 5.1875H48.8662C49.121 5.1875 49.3299 5.39565 49.3299 5.65077V7.5028C49.3299 7.75733 49.1216 7.96548 48.8662 7.96548ZM48.8202 22.7359H47.709C47.4542 22.7359 47.2459 22.5277 47.2459 22.2731V10.4658C47.2459 10.2113 47.4536 10.0025 47.709 10.0025H48.8202C49.0744 10.0025 49.2833 10.2107 49.2833 10.4658V22.2726C49.2833 22.5271 49.075 22.7359 48.8202 22.7359Z" fill="white"/>
<path d="M60.1185 22.6432C59.354 22.7818 58.3126 22.8978 57.2241 22.8978C54.0755 22.8978 52.293 20.6752 52.293 17.2721V15.4665C52.293 12.0634 54.0523 9.84082 57.2241 9.84082C58.2894 9.84082 59.354 9.95683 60.1185 10.0954C60.4885 10.165 60.581 10.2803 60.581 10.6045V11.4377C60.581 11.6691 60.396 11.7851 60.1871 11.7851H60.0946C59.0759 11.6691 58.3586 11.6233 57.2235 11.6233C55.3717 11.6233 54.3298 12.8502 54.3298 15.4665V17.2721C54.3298 19.8652 55.3484 21.1153 57.2235 21.1153C58.358 21.1153 59.0759 21.0689 60.0946 20.9535H60.1871C60.3954 20.9535 60.581 21.0695 60.581 21.3009V22.1341C60.581 22.435 60.4879 22.5737 60.1185 22.6432Z" fill="white"/>
<path d="M72.0206 22.736H70.3532C70.099 22.736 70.0059 22.6664 69.8209 22.435L65.2144 16.7398V22.2727C65.2144 22.5272 65.0061 22.7354 64.7507 22.7354H63.6395C63.3846 22.7354 63.1758 22.5272 63.1758 22.2727V5.78945C63.1758 5.53492 63.3841 5.32617 63.6395 5.32617H64.7507C65.0055 5.32617 65.2144 5.53433 65.2144 5.78945V15.4201L69.8441 10.2114C69.9832 10.0496 70.0757 10.0032 70.3072 10.0032H71.9281C72.1596 10.0032 72.2754 10.1192 72.2754 10.2577C72.2754 10.3505 72.2288 10.4427 72.1596 10.5123L67.0662 16.022L72.2062 22.2263C72.2521 22.2727 72.2754 22.3649 72.2754 22.4344C72.2754 22.5962 72.1829 22.7354 72.0212 22.7354L72.0206 22.736Z" fill="white"/>
<path d="M85.6071 22.5279C84.4493 22.7593 82.9448 22.9216 80.5601 22.9216C78.1748 22.9216 74.3555 21.2778 74.3555 15.8145V12.4809C74.3555 6.99446 77.8746 5.35059 80.6294 5.35059C82.8517 5.35059 84.8432 5.62833 85.6071 5.76749C85.9078 5.83708 86.0469 5.95249 86.0469 6.25339V7.80446C86.0469 8.12863 85.9544 8.29042 85.5844 8.29042H85.5146C84.4493 8.19762 82.8517 8.10541 80.63 8.10541C79.0789 8.10541 77.5977 9.19381 77.5977 12.4809V15.8145C77.5977 19.1022 79.1947 20.1668 80.5613 20.1668C81.4177 20.1668 82.135 20.1435 82.8529 20.0972V14.1938C82.8529 13.9392 83.0385 13.7311 83.2934 13.7311H85.5856C85.8398 13.7311 86.0481 13.9392 86.0481 14.1938V21.9724C86.0481 22.2733 85.9096 22.4583 85.6082 22.5279H85.6071Z" fill="white"/>
<path d="M95.7726 22.9208C92.0458 22.9208 89.4062 21.3002 89.4062 16.3692V5.9743C89.4062 5.71972 89.6145 5.53418 89.8693 5.53418H92.1616C92.4164 5.53418 92.6246 5.71918 92.6246 5.9743V16.3692C92.6246 19.0086 93.2733 20.2587 95.7732 20.2587C98.2737 20.2587 98.9218 19.0086 98.9218 16.3692V5.9743C98.9218 5.71972 99.1301 5.53418 99.3849 5.53418H101.677C101.931 5.53418 102.14 5.71918 102.14 5.9743V16.3692C102.14 21.3002 99.5001 22.9208 95.7726 22.9208Z" fill="white"/>
<path d="M117.859 22.7362H115.405C115.197 22.7362 115.012 22.5513 114.965 22.3425L113.9 17.9438H108.575L107.51 22.3425C107.464 22.5507 107.279 22.7362 107.07 22.7362H104.616C104.385 22.7362 104.199 22.5744 104.199 22.3425C104.199 22.3193 104.222 22.2729 104.222 22.2265L108.019 7.71069C108.575 5.55777 110.242 5.34961 111.238 5.34961C112.233 5.34961 113.9 5.55777 114.455 7.71069L118.252 22.2265C118.252 22.2729 118.275 22.3193 118.275 22.3425C118.275 22.5739 118.09 22.7362 117.859 22.7362H117.859ZM111.609 8.42914C111.539 8.15141 111.469 8.05861 111.238 8.05861C111.007 8.05861 110.937 8.15141 110.868 8.42914L109.2 15.3049H113.275L111.608 8.42914H111.609Z" fill="white"/>
<path d="M132.672 22.7362H129.848C129.594 22.7362 129.5 22.5048 129.385 22.2735L126.052 16.0924H125.728C125.126 16.0924 124.199 16.0228 123.667 15.9996V22.2735C123.667 22.5281 123.482 22.7362 123.227 22.7362H120.912C120.657 22.7362 120.449 22.5281 120.449 22.2735V6.34521C120.449 5.88247 120.727 5.72009 121.19 5.6505C122.394 5.46556 124.038 5.34961 125.728 5.34961C129.293 5.34961 132.395 6.62295 132.395 10.5815V10.7897C132.395 13.2436 131.168 14.7715 129.27 15.5125L132.905 22.2723C132.951 22.3419 132.951 22.4109 132.951 22.4573C132.951 22.6191 132.859 22.7351 132.674 22.7351L132.672 22.7362ZM129.2 10.5821C129.2 8.84605 128.042 8.10503 125.727 8.10503C125.241 8.10503 124.083 8.1514 123.666 8.19777V13.4065C124.037 13.4297 125.334 13.4761 125.727 13.4761C128.111 13.4761 129.2 12.8278 129.2 10.7908V10.5821Z" fill="white"/>
<path d="M140.729 22.9212C139.085 22.9212 136.863 22.7594 136.169 22.6434C135.775 22.5738 135.566 22.3889 135.566 21.9256V6.34521C135.566 5.88247 135.775 5.69693 136.169 5.62735C136.863 5.51134 139.086 5.34961 140.729 5.34961C145.359 5.34961 147.998 7.84985 147.998 12.4336V15.8367C147.998 20.4203 145.359 22.9212 140.729 22.9212ZM144.804 12.4336C144.804 8.96087 143.045 8.05801 140.729 8.05801C139.873 8.05801 139.271 8.10444 138.784 8.12759V20.1432C139.27 20.1663 139.872 20.2127 140.729 20.2127C143.045 20.2127 144.804 19.3099 144.804 15.8372V12.4336Z" fill="white"/>
<path d="M5.50901 18.778C5.50901 18.9375 5.6209 19.1352 5.75715 19.2175L11.4124 22.6276C11.5487 22.7099 11.7724 22.7099 11.9087 22.6276L17.564 19.2175C17.7008 19.1352 17.8121 18.9375 17.8121 18.778V17.9825C17.8121 17.823 17.6817 17.6925 17.5222 17.6925H14.6229C14.4635 17.6925 14.2211 17.7598 14.0843 17.8416L11.9082 19.1486C11.7713 19.2309 11.5481 19.2309 11.4112 19.1486L9.23508 17.8416C9.09824 17.7593 8.98629 17.5621 8.98629 17.4026V10.967C8.98629 10.8075 9.11215 10.6417 9.26522 10.5982L11.3805 10.0004C11.5342 9.95686 11.7852 9.95686 11.9383 10.0004L14.053 10.5982C14.2066 10.6417 14.4624 10.677 14.6218 10.677H17.5211C17.6805 10.677 17.811 10.5465 17.811 10.3871V8.47131C17.811 8.31185 17.6857 8.14601 17.532 8.1025L11.9383 6.52189C11.7846 6.47838 11.5336 6.47838 11.3805 6.52189L5.78674 8.1025C5.63308 8.14601 5.50781 8.31185 5.50781 8.47131V18.778H5.50901Z" fill="white"/>
<path d="M11.2635 28.9699C11.4821 29.1015 11.8393 29.1015 12.0579 28.9699L22.9233 22.4177C23.1423 22.2861 23.3207 21.9694 23.3207 21.7143V12.9285C23.3207 12.6734 23.1119 12.4647 22.857 12.4647H12.1245C11.8694 12.4647 11.6607 12.6734 11.6607 12.9285V15.4799C11.6607 15.735 11.8694 15.9438 12.1245 15.9438H19.3784C19.6335 15.9438 19.8423 16.1524 19.8423 16.4076V19.7498C19.8423 20.005 19.6637 20.3216 19.4451 20.4532L12.0584 24.9075C11.8398 25.0392 11.4827 25.0392 11.2641 24.9075L3.87682 20.4532C3.65823 20.3216 3.47967 20.005 3.47967 19.7498V7.10982C3.47967 6.8547 3.68025 6.58908 3.92612 6.51949L11.2148 4.4605C11.46 4.39092 11.8618 4.39092 12.1077 4.4605L19.3964 6.51949C19.6416 6.58908 19.8429 6.8547 19.8429 7.10982V10.2131C19.8429 10.4683 20.0516 10.677 20.3067 10.677H22.8582C23.1131 10.677 23.3219 10.4683 23.3219 10.2131V4.60486C23.3219 4.34974 23.1214 4.08418 22.8755 4.01519L12.1072 0.981428C11.8619 0.912441 11.46 0.912441 11.2142 0.981428L0.446506 4.01519C0.200635 4.08418 0 4.34974 0 4.60486V21.7149C0 21.97 0.178614 22.2866 0.397213 22.4183L11.2629 28.9705L11.2635 28.9699Z" fill="white"/>
</g>
</svg>
