<svg width="156" height="24" viewBox="0 0 156 24" fill="none" xmlns="http://www.w3.org/2000/svg">
<g clip-path="url(#clip0_72_3999)">
<path d="M7.92702 8.24797L9.73681 7.73485C9.87036 7.69487 10.0841 7.69487 10.2109 7.73485L12.0207 8.24797C12.1543 8.28795 12.368 8.31461 12.5082 8.31461H14.9858C15.1194 8.31461 15.2329 8.20132 15.2329 8.06804V6.43539C15.2329 6.30211 15.1261 6.15551 14.9925 6.12218L10.2109 4.77609C10.0774 4.7361 9.86368 4.7361 9.73681 4.77609L4.95526 6.12218C4.8217 6.16217 4.71484 6.30211 4.71484 6.43539V15.2251C4.71484 15.3584 4.80834 15.5316 4.92855 15.5983L9.76351 18.5037C9.87704 18.577 10.0707 18.577 10.1909 18.5037L15.0258 15.5983C15.1461 15.525 15.2396 15.3584 15.2396 15.2251V14.5454C15.2396 14.4121 15.1261 14.2987 14.9925 14.2987H12.5149C12.3813 14.2987 12.1743 14.3587 12.0541 14.4254L10.1909 15.5383C10.0707 15.6116 9.88372 15.6116 9.76351 15.5383L7.90032 14.4254C7.78011 14.3521 7.68662 14.1855 7.68662 14.0522V8.56118C7.68662 8.4279 7.79347 8.28128 7.92702 8.24797Z" fill="#111553"/>
<path d="M19.5614 2.63057L10.3589 0.0449812C10.1519 -0.0149937 9.80462 -0.0149937 9.59761 0.0449812L0.388466 2.63057C0.181444 2.69055 0.0078125 2.91712 0.0078125 3.13036V17.7243C0.0078125 17.9442 0.16141 18.2108 0.348397 18.324L9.63767 23.915C9.82466 24.0283 10.1319 24.0283 10.3189 23.915L19.6081 18.324C19.7951 18.2108 19.9487 17.9442 19.9487 17.7243V10.2274C19.9487 10.0075 19.7685 9.83423 19.5547 9.83423H10.379C10.1586 9.83423 9.98494 10.0142 9.98494 10.2274V12.4064C9.98494 12.6264 10.1652 12.7997 10.379 12.7997H16.5762C16.7966 12.7997 16.9702 12.9796 16.9702 13.1929V16.045C16.9702 16.2649 16.8166 16.5314 16.6297 16.6448L10.3189 20.4431C10.1319 20.5565 9.82466 20.5565 9.63767 20.4431L3.32684 16.6448C3.13985 16.5314 2.98626 16.2649 2.98626 16.045V5.26947C2.98626 5.04956 3.15989 4.82299 3.36692 4.76301L9.59761 3.00375C9.80462 2.94377 10.1519 2.94377 10.3589 3.00375L16.5896 4.76301C16.7966 4.82299 16.9702 5.04956 16.9702 5.26947V7.91504C16.9702 8.13494 17.1506 8.3082 17.3643 8.3082H19.5481C19.7684 8.3082 19.942 8.12827 19.942 7.91504V3.13036C19.942 2.91046 19.7684 2.68389 19.5614 2.63057Z" fill="#111553"/>
<path d="M36.5569 17.6845C33.1377 17.6845 31.0274 15.1123 31.0274 11.9469C31.0274 8.78159 33.1311 6.16268 36.4768 6.16268C38.0395 6.16268 39.3284 6.70911 40.3702 7.79533L42.821 5.66955C41.2584 3.81699 39.3017 2.95068 36.4768 2.95068C31.1209 2.95068 27.4346 6.98234 27.4346 11.9536C27.4346 16.9248 31.328 20.9032 36.4768 20.9032C39.5019 20.9032 41.7325 19.7437 43.0414 18.1577L40.5104 16.0052C39.4953 17.1181 38.2331 17.6845 36.5436 17.6845H36.5569Z" fill="#111553"/>
<path d="M47.5615 2.53125H44.2158V20.5837H47.5615V2.53125Z" fill="#111553"/>
<path d="M52.8838 7.72266H49.5381V20.5839H52.8838V7.72266Z" fill="#111553"/>
<path d="M51.2035 2.72339C50.0616 2.72339 49.1934 3.61634 49.1934 4.6759C49.1934 5.73546 50.0616 6.65508 51.2035 6.65508C52.3455 6.65508 53.2137 5.78877 53.2137 4.6759C53.2137 3.56303 52.3723 2.72339 51.2035 2.72339Z" fill="#111553"/>
<path d="M61.239 10.4409C62.3809 10.4409 63.3693 11.0073 63.9636 11.9003L66.5414 9.80116C65.4529 8.29513 63.543 7.37551 61.1855 7.40218C57.2454 7.42882 54.3672 10.4209 54.3672 14.1527C54.3672 17.8845 57.3189 20.9032 61.0119 20.9032C63.543 20.9032 65.326 19.9903 66.5414 18.4309L64.1105 16.3318C63.4427 17.2247 62.6013 17.8645 61.3124 17.8645C59.1821 17.8645 57.7196 16.1585 57.7196 14.1527C57.7196 12.1469 59.1087 10.4409 61.239 10.4409Z" fill="#111553"/>
<path d="M80.7939 7.72242H76.039L71.2041 12.9136V2.53125H67.8584V20.5837H71.2041V14.4729L76.3797 20.5837H80.8207L74.7235 13.7066L80.7939 7.72242Z" fill="#111553"/>
<path d="M89.3409 10.6879V13.8066L95.0441 13.7599C94.65 16.4521 92.9136 17.7383 90.1623 17.7383C86.8166 17.7383 84.713 15.1193 84.713 11.954C84.713 8.78867 86.8166 6.16976 90.1623 6.16976C91.7717 6.16976 93.114 6.7895 94.0557 7.80241L96.5332 5.67664C95.0974 3.92403 93.114 2.95776 90.1623 2.95776C85.0068 2.95776 81.1201 6.98942 81.1201 11.9607C81.1201 16.9319 85.0135 20.9103 90.1623 20.9103C95.3111 20.9103 98.5167 17.4251 98.5167 12.6271C98.5167 12.0806 98.4699 11.2143 98.3898 10.7012H89.3476L89.3409 10.6879Z" fill="#111553"/>
<path d="M108.6 14.7731C108.6 16.9989 107.338 17.965 105.922 17.965C104.26 17.965 103.345 16.9989 103.345 14.7731V7.72266H99.999V15.5861C99.999 18.8247 102.129 20.8772 104.907 20.8772C106.917 20.8772 108.08 20.1375 108.701 18.6514V20.5773H111.946V7.72266H108.6V14.7731Z" fill="#111553"/>
<path d="M123.894 9.74753C123.2 8.36145 122.038 7.44849 119.807 7.44849C116.261 7.44849 113.437 10.4872 113.437 14.199C113.437 17.9107 116.261 20.9029 119.807 20.9029C122.111 20.9029 123.28 19.9366 123.968 18.4772V20.5764H127.214V7.72171H123.894V9.74753ZM120.348 17.8841C118.218 17.8841 116.782 16.1316 116.782 14.1724C116.782 12.2132 118.218 10.4606 120.348 10.4606C122.479 10.4606 123.968 12.1932 123.968 14.1923C123.968 16.1916 122.552 17.8775 120.348 17.8775V17.8841Z" fill="#111553"/>
<path d="M132.442 10.1674V7.72172H129.196V20.5831H132.542V14.0057C132.542 11.8533 134.031 10.5672 135.961 10.5672H136.435V7.42851C134.205 7.3019 132.889 8.32147 132.448 10.174L132.442 10.1674Z" fill="#111553"/>
<path d="M146.866 9.7016C146.172 8.34216 145.01 7.44921 142.799 7.44921C139.253 7.44921 136.428 10.4879 136.428 14.1997C136.428 17.9115 139.253 20.9037 142.799 20.9037C145.102 20.9037 146.272 19.9374 146.959 18.4779V20.577H150.205V2.53125H146.859V9.7016H146.866ZM143.347 17.8848C141.216 17.8848 139.78 16.1322 139.78 14.1731C139.78 12.2139 141.216 10.4613 143.347 10.4613C145.477 10.4613 146.966 12.1939 146.966 14.193C146.966 16.1922 145.551 17.8782 143.347 17.8782V17.8848Z" fill="#111553"/>
<path d="M154.325 18.0046C153.39 18.0046 152.649 18.731 152.649 19.6307C152.649 20.5303 153.398 21.2767 154.325 21.2767C155.253 21.2767 155.995 20.5503 155.995 19.6307C155.995 18.711 155.267 18.0046 154.325 18.0046ZM154.332 20.9301C153.598 20.9301 153.063 20.357 153.063 19.6307C153.063 18.9043 153.598 18.3311 154.325 18.3311C155.053 18.3311 155.574 18.9176 155.574 19.6373C155.574 20.357 155.047 20.9234 154.332 20.9234V20.9301Z" fill="#111553"/>
<path d="M154.699 19.6765V19.6565C154.899 19.5966 155.04 19.4566 155.04 19.2766C155.04 19.1167 154.974 18.9902 154.88 18.9169C154.76 18.8502 154.619 18.7969 154.312 18.7969C154.045 18.7969 153.838 18.8168 153.685 18.8436V20.4695H154.065V19.8165H154.245C154.453 19.8165 154.553 19.8965 154.586 20.0763C154.633 20.2629 154.666 20.4161 154.713 20.4761H155.12C155.08 20.4161 155.054 20.3162 154.999 20.0697C154.953 19.8498 154.86 19.7298 154.699 19.6699V19.6765ZM154.251 19.5632H154.071V19.0968C154.112 19.0901 154.178 19.0768 154.278 19.0768C154.519 19.0768 154.625 19.1767 154.625 19.3233C154.625 19.4899 154.459 19.5632 154.245 19.5632H154.251Z" fill="#111553"/>
</g>
<defs>
<clipPath id="clip0_72_3999">
<rect width="156" height="24" fill="white"/>
</clipPath>
</defs>
</svg>
