<?xml version="1.0" encoding="UTF-8"?> <svg xmlns="http://www.w3.org/2000/svg" viewBox="0 0 2552.41 485.3"><defs><style>.cls-1{fill:#062148;}.cls-2{fill:#2684d6;}</style></defs><title>cg-logo-text</title><g id="Layer_2" data-name="Layer 2"><g id="Layer_1-2" data-name="Layer 1"><path class="cls-1" d="M663.92,373.67c-16.77,3.2-32.34,5.19-66.28,5.19-49.11,0-105.4-26.35-105.4-123.37V200c0-97.82,56.29-123.38,105.4-123.38,25.15,0,49.51,3.6,67.08,6.39,3.59.4,6.38,1.6,6.38,5.19v20.36c0,2.4-.79,4.4-4.79,4.4h-1.19c-14.38-1.2-43.92-3.6-67.08-3.6-39.13,0-69.47,22.76-69.47,90.64v55.49c0,67.08,30.34,90.64,69.47,90.64,22.76,0,51.5-2,65.88-3.2h1.59c4.4,0,6.39,2,6.39,6.39v16.37C671.9,370.48,668.31,372.88,663.92,373.67Z"></path><path class="cls-1" d="M745,376.07H724.2c-4,0-7.18-3.59-7.18-8V83.41c0-4,2.79-7.58,7.18-7.58H745a7.25,7.25,0,0,1,7.18,7.58V368.08C752.15,372.08,749.36,376.07,745,376.07Z"></path><path class="cls-1" d="M842.78,121.34H822.42a8,8,0,0,1-8-8V81.42a8,8,0,0,1,8-8h20.36a8,8,0,0,1,8,8v31.94A8,8,0,0,1,842.78,121.34ZM842,376.07H822.82a8,8,0,0,1-8-8V164.46a8,8,0,0,1,8-8H842a8,8,0,0,1,8,8V368.08A8,8,0,0,1,842,376.07Z"></path><path class="cls-1" d="M1036.82,374.47a289.16,289.16,0,0,1-49.91,4.39c-54.3,0-85-38.32-85-97V250.7c0-58.69,30.34-97,85-97a294,294,0,0,1,49.91,4.39c6.39,1.2,8,3.2,8,8.79v14.37c0,4-3.19,6-6.78,6h-1.6a388.72,388.72,0,0,0-49.51-2.8C955,184.42,937,205.58,937,250.7v31.14c0,44.72,17.57,66.28,49.91,66.28a390.62,390.62,0,0,0,49.51-2.79h1.6c3.59,0,6.78,2,6.78,6v14.37C1044.8,370.88,1043.21,373.27,1036.82,374.47Z"></path><path class="cls-1" d="M1242,376.07h-28.75c-4.39,0-6-1.2-9.18-5.19l-79.46-98.22v95.42a8,8,0,0,1-8,8H1097.5a8,8,0,0,1-8-8V83.81a8,8,0,0,1,8-8h19.17a8,8,0,0,1,8,8V249.9l79.86-89.83c2.39-2.8,4-3.59,8-3.59h28c4,0,6,2,6,4.39a6.42,6.42,0,0,1-2,4.39l-87.84,95,88.64,107a5.54,5.54,0,0,1,1.2,3.59C1246.43,373.67,1244.83,376.07,1242,376.07Z"></path><path class="cls-1" d="M1476.41,372.48c-20,4-45.91,6.78-87,6.78-43.12,0-107-28.34-107-122.57V199.2c0-94.63,60.69-123,108.2-123a526.93,526.93,0,0,1,85.84,7.19c5.19,1.2,7.59,3.2,7.59,8.39v26.75c0,5.59-1.6,8.38-8,8.38h-1.19c-18.37-1.6-45.92-3.19-84.25-3.19-26.75,0-52.3,18.76-52.3,75.46v57.49c0,56.7,27.55,75.06,51.1,75.06,14.78,0,27.15-.4,39.53-1.2V228.74a7.68,7.68,0,0,1,7.59-8H1476a8,8,0,0,1,8,8V362.89C1484,368.08,1481.6,371.28,1476.41,372.48Z"></path><path class="cls-1" d="M1651.69,379.26c-64.29,0-109.8-27.94-109.8-113V87a7.67,7.67,0,0,1,8-7.58h39.53a7.68,7.68,0,0,1,8,7.58V266.27c0,45.52,11.18,67.08,54.3,67.08s54.3-21.56,54.3-67.08V87a7.67,7.67,0,0,1,8-7.58h39.53a7.67,7.67,0,0,1,8,7.58V266.27C1761.48,351.32,1716,379.26,1651.69,379.26Z"></path><path class="cls-1" d="M2032.58,376.07h-42.33c-3.59,0-6.78-3.19-7.58-6.79l-18.37-75.86h-91.83l-18.36,75.86c-.8,3.6-4,6.79-7.59,6.79H1804.2c-4,0-7.19-2.8-7.19-6.79a17.53,17.53,0,0,0,.4-2L1862.89,117c9.58-37.13,38.33-40.73,55.5-40.73s45.91,3.6,55.49,40.73l65.48,250.34a17.53,17.53,0,0,0,.4,2C2039.76,373.27,2036.57,376.07,2032.58,376.07ZM1924.77,129.33c-1.19-4.79-2.39-6.39-6.38-6.39s-5.19,1.6-6.39,6.39l-28.75,118.58h70.27Z"></path><path class="cls-1" d="M2288.1,376.07h-48.71c-4.39,0-6-4-8-8l-57.5-106.6h-5.59c-10.38,0-26.35-1.2-35.53-1.6v108.2a7.68,7.68,0,0,1-7.59,8h-39.93a8,8,0,0,1-8-8V93.39c0-8,4.79-10.78,12.78-12,20.76-3.2,49.11-5.2,78.25-5.2,61.49,0,115,22,115,90.24v3.59c0,42.32-21.16,68.67-53.9,81.45l62.68,116.58a5.38,5.38,0,0,1,.8,3.2C2292.89,374.07,2291.29,376.07,2288.1,376.07Zm-59.89-209.61c0-30-20-42.72-59.89-42.72-8.38,0-28.35.8-35.53,1.59v89.84c6.39.4,28.74,1.2,35.53,1.2,41.13,0,59.89-11.18,59.89-46.32Z"></path><path class="cls-1" d="M2427,379.26c-28.35,0-66.67-2.79-78.65-4.79-6.79-1.2-10.38-4.39-10.38-12.38V93.39c0-8,3.59-11.18,10.38-12.37,12-2,50.3-4.8,78.65-4.8,79.85,0,125.37,43.12,125.37,122.18v58.69C2552.41,336.14,2506.89,379.26,2427,379.26Zm70.27-180.86c0-59.89-30.34-75.46-70.27-75.46-14.77,0-25.15.8-33.53,1.2V331.35c8.38.4,18.76,1.2,33.53,1.2,39.93,0,70.27-15.57,70.27-75.46Z"></path><path class="cls-2" d="M95,307.82a9.86,9.86,0,0,0,4.28,7.58l97.54,58.81a9.13,9.13,0,0,0,8.56,0l97.53-58.81a9.83,9.83,0,0,0,4.28-7.58V294.1a5,5,0,0,0-5-5h-50a21.44,21.44,0,0,0-9.29,2.57l-37.53,22.55a9.21,9.21,0,0,1-8.57,0l-37.52-22.55A9.81,9.81,0,0,1,155,284.1v-111a7,7,0,0,1,4.81-6.36l36.48-10.31a20.85,20.85,0,0,1,9.62,0l36.47,10.31a43.44,43.44,0,0,0,9.82,1.36h50a5,5,0,0,0,5-5v-33a7,7,0,0,0-4.81-6.36L205.91,96.45a21.12,21.12,0,0,0-9.62,0L99.81,123.71A7,7,0,0,0,95,130.07Z"></path><path class="cls-1" d="M194.25,483.59a14.63,14.63,0,0,0,13.7,0l187.39-113a15.75,15.75,0,0,0,6.85-12.13V206.94a8,8,0,0,0-8-8H209.1a8,8,0,0,0-8,8v44a8,8,0,0,0,8,8H334.19a8,8,0,0,1,8,8v57.64a15.75,15.75,0,0,1-6.85,12.13L208,413.53a14.63,14.63,0,0,1-13.7,0L66.85,336.71A15.75,15.75,0,0,1,60,324.58v-218a11.22,11.22,0,0,1,7.7-10.18L193.4,60.9a33.39,33.39,0,0,1,15.4,0L334.5,96.41a11.22,11.22,0,0,1,7.69,10.18v53.52a8,8,0,0,0,8,8h44a8,8,0,0,0,8-8V63.39a11.2,11.2,0,0,0-7.7-10.17L208.8.9a33.39,33.39,0,0,0-15.4,0L7.7,53.22A11.2,11.2,0,0,0,0,63.39V358.47A15.75,15.75,0,0,0,6.85,370.6Z"></path></g></g></svg> 