<?xml version="1.0" encoding="UTF-8"?> <svg xmlns="http://www.w3.org/2000/svg" viewBox="0 0 402.19 485.3"><defs><style>.cls-1{fill:#fff;}.cls-2{fill:#2684d6;}</style></defs><title>cg-navy-white</title><g id="Layer_2" data-name="Layer 2"><g id="Layer_1-2" data-name="Layer 1"><path class="cls-1" d="M95,307.82a9.86,9.86,0,0,0,4.28,7.58l97.54,58.81a9.13,9.13,0,0,0,8.56,0l97.53-58.81a9.83,9.83,0,0,0,4.28-7.58V294.1a5,5,0,0,0-5-5h-50a21.44,21.44,0,0,0-9.29,2.57l-37.53,22.55a9.21,9.21,0,0,1-8.57,0l-37.52-22.55A9.81,9.81,0,0,1,155,284.1v-111a7,7,0,0,1,4.81-6.36l36.48-10.31a20.85,20.85,0,0,1,9.62,0l36.47,10.31a43.44,43.44,0,0,0,9.82,1.36h50a5,5,0,0,0,5-5v-33a7,7,0,0,0-4.81-6.36L205.91,96.45a21.12,21.12,0,0,0-9.62,0L99.81,123.71A7,7,0,0,0,95,130.07Z"></path><path class="cls-2" d="M194.25,483.59a14.63,14.63,0,0,0,13.7,0l187.39-113a15.75,15.75,0,0,0,6.85-12.13V206.94a8,8,0,0,0-8-8H209.1a8,8,0,0,0-8,8v44a8,8,0,0,0,8,8H334.19a8,8,0,0,1,8,8v57.64a15.75,15.75,0,0,1-6.85,12.13L208,413.53a14.63,14.63,0,0,1-13.7,0L66.85,336.71A15.75,15.75,0,0,1,60,324.58v-218a11.22,11.22,0,0,1,7.7-10.18L193.4,60.9a33.39,33.39,0,0,1,15.4,0L334.5,96.41a11.22,11.22,0,0,1,7.69,10.18v53.52a8,8,0,0,0,8,8h44a8,8,0,0,0,8-8V63.39a11.2,11.2,0,0,0-7.7-10.17L208.8.9a33.39,33.39,0,0,0-15.4,0L7.7,53.22A11.2,11.2,0,0,0,0,63.39V358.47A15.75,15.75,0,0,0,6.85,370.6Z"></path></g></g></svg> 