<?xml version="1.0" standalone="no"?>
<!DOCTYPE svg PUBLIC "-//W3C//DTD SVG 20010904//EN"
 "http://www.w3.org/TR/2001/REC-SVG-20010904/DTD/svg10.dtd">
<svg version="1.0" xmlns="http://www.w3.org/2000/svg"
 width="500.000000pt" height="500.000000pt" viewBox="0 0 500.000000 500.000000"
 preserveAspectRatio="xMidYMid meet">
<metadata>
Created by potrace 1.14, written by Peter Selinger 2001-2017
</metadata>
<g transform="translate(0.000000,500.000000) scale(0.100000,-0.100000)"
fill="#000000" stroke="none">
<path d="M2350 4353 c-47 -13 -114 -33 -150 -43 -36 -11 -139 -40 -230 -65
-91 -25 -194 -55 -230 -65 -80 -23 -454 -129 -495 -141 -16 -4 -64 -17 -105
-29 -41 -11 -86 -23 -99 -26 -38 -8 -80 -33 -91 -53 -7 -13 -10 -406 -10
-1188 0 -1117 1 -1169 18 -1198 14 -22 120 -91 385 -250 201 -121 385 -232
409 -246 589 -357 714 -429 748 -429 27 0 69 20 170 81 135 81 682 411 1118
674 152 92 240 151 252 171 19 28 20 52 20 642 0 599 0 612 -20 632 -20 20
-33 20 -760 20 -727 0 -740 0 -760 -20 -19 -19 -20 -33 -20 -213 0 -184 1
-195 21 -213 20 -18 45 -19 517 -19 274 -1 506 -4 518 -8 12 -4 25 -17 31 -30
5 -12 9 -127 8 -257 -1 -184 -4 -242 -16 -265 -10 -22 -56 -56 -174 -127 -88
-54 -171 -104 -185 -111 -14 -8 -175 -105 -359 -216 -295 -178 -339 -202 -368
-198 -19 3 -100 45 -181 93 -81 49 -156 94 -167 100 -17 9 -410 246 -455 273
-8 6 -68 42 -133 81 -64 39 -125 83 -134 97 -16 25 -18 90 -18 900 0 860 0
874 20 898 17 21 96 47 515 166 412 118 506 142 560 142 53 -1 155 -26 560
-142 329 -95 502 -149 514 -161 19 -18 20 -36 21 -254 0 -215 2 -236 19 -255
18 -20 29 -21 213 -21 180 0 194 1 213 20 19 19 20 33 20 420 l0 399 -25 25
c-14 14 -44 30 -68 37 -23 6 -161 44 -307 86 -146 41 -409 115 -585 164 -176
50 -365 104 -419 120 -122 36 -189 36 -306 2z"/>
<path d="M2465 3635 c-5 -2 -71 -20 -145 -41 -74 -20 -218 -60 -320 -89 -102
-29 -208 -58 -236 -65 -98 -25 -88 56 -88 -755 0 -698 0 -716 19 -734 29 -29
786 -481 804 -481 18 0 776 452 804 479 25 24 29 167 6 182 -8 5 -110 9 -227
9 -243 0 -210 9 -409 -111 -189 -115 -154 -115 -344 -1 -100 60 -168 107 -176
121 -8 18 -12 145 -12 467 l0 443 26 21 c14 11 31 20 38 20 7 0 68 16 136 36
68 19 137 36 153 36 17 1 76 -11 131 -27 244 -68 223 -65 462 -65 202 0 224 2
230 17 4 10 7 80 7 156 -1 107 -4 141 -15 153 -13 12 -117 45 -314 99 -27 8
-138 39 -245 70 -183 53 -262 69 -285 60z"/>
</g>
</svg>
